<?xml version="1.0" standalone="no"?>
<!DOCTYPE svg PUBLIC "-//W3C//DTD SVG 20010904//EN"
 "http://www.w3.org/TR/2001/REC-SVG-20010904/DTD/svg10.dtd">
<svg version="1.0" xmlns="http://www.w3.org/2000/svg"
 width="260.000000pt" height="260.000000pt" viewBox="0 0 260.000000 260.000000"
 preserveAspectRatio="xMidYMid meet">
<metadata>
Created by potrace 1.14, written by Peter Selinger 2001-2017
</metadata>
<g transform="translate(0.000000,260.000000) scale(0.100000,-0.100000)"
fill="#000000" stroke="none">
<path d="M614 1446 c-4 -17 -8 -35 -9 -41 -1 -5 -7 -23 -13 -38 -14 -32 -9
-47 16 -47 9 0 45 -12 80 -27 l62 -28 -6 -55 c-3 -30 -10 -74 -15 -97 -5 -23
-11 -63 -14 -90 -3 -26 -11 -65 -16 -87 -11 -40 -25 -115 -38 -202 l-7 -52 40
-5 c23 -3 42 -2 44 2 2 5 11 7 22 4 16 -4 19 3 25 54 3 32 10 76 15 98 5 22
18 85 30 140 12 55 26 118 31 140 6 22 13 57 16 77 4 33 8 37 27 33 170 -42
186 -36 186 60 l0 61 -42 22 c-80 39 -238 90 -301 97 -129 14 -126 14 -133
-19z"/>
<path d="M1370 1453 c-49 -32 -61 -52 -79 -128 -7 -27 -18 -55 -26 -61 -19
-14 -52 -139 -65 -245 -5 -47 -21 -114 -35 -147 -29 -71 -32 -112 -10 -112 9
0 15 -9 15 -22 0 -31 32 -80 61 -95 39 -19 147 -43 197 -43 41 0 94 13 168 41
12 4 38 31 57 60 34 51 35 56 35 147 l0 94 -58 58 c-67 67 -110 93 -148 88
-26 -3 -27 -6 -30 -64 -3 -57 -1 -62 20 -67 28 -7 114 -72 122 -92 5 -15 -15
-75 -25 -75 -4 0 -15 -7 -24 -16 -10 -10 -20 -13 -28 -7 -35 27 -166 44 -216
28 -22 -7 -28 4 -11 21 5 5 12 30 15 54 6 53 37 193 59 269 8 29 18 79 22 110
8 67 17 81 55 81 36 0 132 -25 171 -45 17 -8 33 -15 34 -15 10 0 45 85 42 103
-4 31 -144 97 -218 104 -48 4 -61 1 -100 -24z"/>
</g>
</svg>
