<?xml version="1.0" standalone="no"?>
<!DOCTYPE svg PUBLIC "-//W3C//DTD SVG 20010904//EN"
 "http://www.w3.org/TR/2001/REC-SVG-20010904/DTD/svg10.dtd">
<svg version="1.0" xmlns="http://www.w3.org/2000/svg"
 width="260.000000pt" height="260.000000pt" viewBox="0 0 260.000000 260.000000"
 preserveAspectRatio="xMidYMid meet">
<metadata>
Created by potrace 1.14, written by Peter Selinger 2001-2017
</metadata>
<g transform="translate(0.000000,260.000000) scale(0.100000,-0.100000)"
fill="#000000" stroke="none">
<path d="M590 1753 c-24 -10 -70 -60 -70 -77 0 -28 59 -103 90 -115 16 -6 44
-16 60 -22 17 -6 30 -15 30 -19 0 -36 -34 -173 -63 -250 -68 -187 -83 -307
-40 -337 42 -32 126 1 144 56 6 20 23 59 36 86 14 28 38 86 54 130 32 93 82
229 97 266 10 24 13 25 70 21 77 -5 121 15 173 80 53 67 45 78 -71 108 -51 12
-106 30 -123 38 -23 12 -74 18 -187 22 -85 4 -162 9 -170 12 -8 4 -22 4 -30 1z"/>
<path d="M1395 1706 c-16 -7 -45 -33 -64 -56 -33 -41 -100 -170 -116 -221 -4
-13 -30 -61 -57 -106 -76 -128 -103 -230 -81 -311 8 -31 79 -62 141 -62 27 -1
84 -14 132 -31 47 -17 125 -37 175 -45 49 -7 100 -16 113 -19 44 -11 95 34
121 107 13 34 32 82 44 106 18 36 19 48 10 73 -10 26 -9 33 8 50 37 37 -3 74
-121 109 -90 27 -148 23 -185 -11 -32 -31 -34 -76 -2 -88 12 -5 49 -20 82 -32
95 -37 98 -39 75 -77 -17 -28 -25 -32 -64 -32 -24 0 -64 9 -90 21 -40 17 -63
20 -152 17 l-106 -3 7 40 c9 57 132 264 172 288 7 4 20 21 28 37 27 53 75 100
102 100 13 0 43 -9 66 -19 101 -45 190 -81 203 -81 8 0 23 9 35 21 19 19 19
22 4 45 -9 14 -13 33 -10 44 14 43 -112 122 -221 140 -83 14 -213 12 -249 -4z"/>
</g>
</svg>
