<?xml version="1.0" standalone="no"?>
<!DOCTYPE svg PUBLIC "-//W3C//DTD SVG 20010904//EN"
 "http://www.w3.org/TR/2001/REC-SVG-20010904/DTD/svg10.dtd">
<svg version="1.0" xmlns="http://www.w3.org/2000/svg"
 width="260.000000pt" height="260.000000pt" viewBox="0 0 260.000000 260.000000"
 preserveAspectRatio="xMidYMid meet">
<metadata>
Created by potrace 1.14, written by Peter Selinger 2001-2017
</metadata>
<g transform="translate(0.000000,260.000000) scale(0.100000,-0.100000)"
fill="#000000" stroke="none">
<path d="M733 1521 c-29 -11 -66 -29 -82 -40 l-29 -21 26 -69 26 -70 88 -7
c49 -4 91 -10 93 -14 3 -5 -6 -28 -20 -52 -14 -23 -25 -52 -25 -64 0 -11 -7
-29 -15 -40 -20 -25 -34 -79 -40 -148 -2 -31 -9 -64 -13 -74 -5 -9 -12 -31
-15 -49 l-6 -31 72 -14 c40 -7 76 -13 81 -13 5 0 22 36 37 80 17 48 34 81 43
83 9 2 16 9 16 15 2 71 25 169 54 232 l35 75 129 0 130 0 12 71 c7 39 10 71 9
73 -2 1 -47 13 -99 26 -52 13 -97 26 -100 30 -15 20 -90 32 -215 36 -121 4
-147 2 -192 -15z"/>
<path d="M1662 1519 c-70 -18 -123 -56 -164 -115 -56 -82 -83 -231 -60 -339 6
-33 9 -76 6 -96 -5 -33 -1 -41 40 -83 24 -26 70 -58 101 -72 52 -24 64 -26
173 -22 128 4 146 10 232 77 61 46 73 84 64 189 -9 101 -36 145 -100 161 -25
6 -48 10 -52 7 -4 -2 -38 3 -76 10 -38 8 -70 13 -72 12 -1 -2 -5 -21 -8 -43
-2 -22 -8 -54 -11 -71 -6 -26 -3 -32 20 -42 14 -7 34 -12 45 -12 19 0 80 -31
79 -40 -1 -15 -102 -80 -126 -82 -71 -5 -92 2 -118 36 -27 35 -27 35 -16 137
l10 103 73 67 c72 67 74 68 130 69 88 0 88 0 88 91 l0 80 -97 -2 c-54 -2 -126
-10 -161 -20z"/>
</g>
</svg>
