<?xml version="1.0" standalone="no"?>
<!DOCTYPE svg PUBLIC "-//W3C//DTD SVG 20010904//EN"
 "http://www.w3.org/TR/2001/REC-SVG-20010904/DTD/svg10.dtd">
<svg version="1.0" xmlns="http://www.w3.org/2000/svg"
 width="260.000000pt" height="260.000000pt" viewBox="0 0 260.000000 260.000000"
 preserveAspectRatio="xMidYMid meet">
<metadata>
Created by potrace 1.14, written by Peter Selinger 2001-2017
</metadata>
<g transform="translate(0.000000,260.000000) scale(0.100000,-0.100000)"
fill="#000000" stroke="none">
<path d="M548 1721 c-16 -16 -28 -37 -28 -45 0 -25 59 -104 83 -111 12 -3 39
-14 61 -23 l38 -16 -6 -56 c-4 -30 -24 -102 -45 -160 -51 -141 -73 -242 -69
-315 l3 -60 44 -3 c63 -5 98 13 112 57 6 20 24 63 40 96 15 33 38 92 50 130
12 39 28 79 35 90 8 11 14 26 14 35 0 9 13 47 29 85 l30 70 81 3 82 3 50 51
c38 39 48 57 46 77 -2 21 -9 27 -33 29 -16 1 -39 7 -50 12 -11 5 -40 14 -65
21 -25 6 -51 16 -59 22 -8 7 -78 15 -170 19 -86 4 -176 10 -201 13 -40 5 -48
2 -72 -24z"/>
<path d="M1345 1664 c-41 -45 -99 -149 -130 -234 -7 -19 -33 -69 -59 -111 -63
-104 -76 -146 -76 -245 l0 -83 46 -21 c27 -11 68 -20 98 -20 31 0 79 -10 121
-26 39 -15 95 -30 125 -35 219 -35 205 -34 239 -10 17 12 34 34 38 49 6 27 34
96 55 139 6 12 8 42 6 67 -4 32 -2 46 8 50 8 3 14 16 14 30 0 32 -47 66 -101
73 -22 3 -42 10 -45 14 -3 5 -37 9 -76 9 -59 0 -74 -4 -94 -22 -28 -28 -32
-76 -6 -85 58 -19 173 -67 177 -73 3 -4 -6 -23 -18 -41 -27 -41 -60 -47 -113
-22 -28 13 -75 19 -169 23 l-130 5 3 25 c2 14 15 49 28 78 32 66 142 232 154
232 5 0 21 23 36 50 15 28 42 60 60 71 l33 20 117 -51 c133 -58 186 -64 192
-21 2 13 -1 28 -7 34 -6 6 -11 25 -11 42 0 26 -8 37 -45 64 -79 56 -107 64
-273 69 l-153 5 -44 -49z"/>
</g>
</svg>
